<svg width="44" height="44" viewBox="0 0 44 44" fill="none" xmlns="http://www.w3.org/2000/svg">
<path d="M27.3914 33.8335C28.0929 33.5432 28.8984 33.8769 29.1889 34.5783C29.4793 35.28 29.1458 36.0854 28.4441 36.3758L26.7522 37.0759C26.0506 37.3663 25.2451 37.0327 24.9547 36.3311C24.6644 35.6297 24.9983 34.826 25.6995 34.5353L27.3914 33.8335Z" fill="#FFD54F"/>
<path d="M24.9565 29.6668C25.2475 28.9655 26.0509 28.633 26.7522 28.9238L28.4441 29.6256C29.1455 29.9167 29.48 30.7217 29.1889 31.4231C28.8978 32.1241 28.0925 32.4567 27.3914 32.1661L25.6995 31.4625C24.9982 31.1715 24.6657 30.3681 24.9565 29.6668Z" fill="#FFD54F"/>
<path d="M29.6668 24.9565C30.3682 24.6656 31.1716 24.9982 31.4626 25.6995L32.1662 27.3914C32.4567 28.0925 32.1241 28.8978 31.4232 29.1889C30.7218 29.4799 29.9167 29.1455 29.6256 28.4441L28.9238 26.7522C28.633 26.0509 28.9655 25.2475 29.6668 24.9565Z" fill="#FFD54F"/>
<path d="M29.6256 37.5556C29.9164 36.8542 30.7199 36.5219 31.4214 36.8126C32.1228 37.1034 32.4567 37.9069 32.1662 38.6084L31.4626 40.302C31.1718 41.0035 30.3683 41.3374 29.6668 41.0468C28.9653 40.7561 28.633 39.9508 28.9238 39.2493L29.6256 37.5556Z" fill="#FFD54F"/>
<path d="M34.5371 25.6995C34.8282 24.9981 35.6333 24.6654 36.3347 24.9565C37.0352 25.2477 37.368 26.0513 37.0777 26.7522L36.3741 28.4441C36.0831 29.1452 35.2795 29.4793 34.5783 29.1889C33.8769 28.8978 33.5443 28.0927 33.8353 27.3914L34.5371 25.6995Z" fill="#FFD54F"/>
<path d="M34.5801 36.8108C35.2817 36.5213 36.0858 36.8559 36.3759 37.5574L37.0759 39.2511C37.3656 39.9526 37.0323 40.7566 36.3311 41.0468C35.6294 41.3369 34.8238 41.0036 34.5336 40.302L33.8335 38.6066C33.544 37.905 33.8786 37.1009 34.5801 36.8108Z" fill="#FFD54F"/>
<path d="M2.29169 38.4996C2.29197 35.9751 2.88856 33.4867 4.03192 31.2361C5.17542 28.9852 6.83425 27.0352 8.87307 25.5463C10.9116 24.0577 13.2726 23.0716 15.7642 22.6674C18.2562 22.2631 20.809 22.4525 23.2139 23.2206C23.9373 23.4516 24.3365 24.2249 24.1055 24.9483C23.8745 25.6715 23.1011 26.0706 22.3778 25.8399C20.3851 25.2035 18.2695 25.0466 16.2046 25.3816C14.14 25.7165 12.1843 26.5346 10.4951 27.7681C8.80597 29.0017 7.43039 30.6156 6.48293 32.4804C5.53555 34.3451 5.04197 36.4079 5.04169 38.4996C5.04162 39.2589 4.42602 39.8746 3.66669 39.8746C2.9073 39.8745 2.29162 39.2589 2.29169 38.4996Z" fill="#FFD54F"/>
<path d="M39.2493 28.9238C39.9509 28.633 40.7561 28.9653 41.0469 29.6668C41.3374 30.3682 41.0035 31.1718 40.3021 31.4625L38.6084 32.1661C37.907 32.4567 37.1034 32.1228 36.8127 31.4214C36.522 30.7199 36.8542 29.9164 37.5557 29.6256L39.2493 28.9238Z" fill="#FFD54F"/>
<path d="M36.8127 34.5783C37.1035 33.8769 37.9069 33.5445 38.6084 33.8353L40.3021 34.5371C41.0034 34.8278 41.3372 35.6315 41.0469 36.3329C40.7561 37.0344 39.9508 37.3684 39.2493 37.0776L37.5557 36.374C36.8543 36.0832 36.5219 35.2798 36.8127 34.5783Z" fill="#FFD54F"/>
<path d="M26.125 14.6667C26.125 10.3634 22.6366 6.875 18.3334 6.875C14.0301 6.875 10.5417 10.3634 10.5417 14.6667C10.5417 18.9699 14.0301 22.4583 18.3334 22.4583C22.6366 22.4583 26.125 18.9699 26.125 14.6667ZM28.875 14.6667C28.875 20.4887 24.1554 25.2083 18.3334 25.2083C12.5114 25.2083 7.79169 20.4887 7.79169 14.6667C7.79169 8.84466 12.5114 4.125 18.3334 4.125C24.1554 4.125 28.875 8.84466 28.875 14.6667Z" fill="#FFD54F"/>
<path d="M37.125 33C37.125 30.7218 35.2782 28.875 33 28.875C30.7218 28.875 28.875 30.7218 28.875 33C28.875 35.2782 30.7218 37.125 33 37.125C35.2782 37.125 37.125 35.2782 37.125 33ZM39.875 33C39.875 36.797 36.797 39.875 33 39.875C29.2031 39.875 26.125 36.797 26.125 33C26.125 29.203 29.2031 26.125 33 26.125C36.797 26.125 39.875 29.203 39.875 33Z" fill="#FFD54F"/>
</svg>
