<svg width="44" height="44" viewBox="0 0 44 44" fill="none" xmlns="http://www.w3.org/2000/svg">
<path d="M37.125 8.46623C37.1251 8.38805 37.1057 8.31075 37.0677 8.24243C37.0298 8.17426 36.9747 8.11705 36.9084 8.07593C36.8421 8.03488 36.766 8.01155 36.6882 8.00789C36.6102 8.00434 36.5324 8.02141 36.4626 8.05623L29.7541 11.4096C29.0543 11.7593 28.2823 11.9431 27.5 11.9431C26.7177 11.9431 25.9457 11.7611 25.2459 11.4114L17.5241 7.54956C17.2061 7.39069 16.8555 7.30786 16.5 7.30786C16.2333 7.30786 15.969 7.35356 15.7194 7.44393L15.4759 7.54956L7.12924 11.7247C7.05312 11.7627 6.98781 11.8206 6.94304 11.893C6.89838 11.9653 6.87505 12.0497 6.87501 12.1347V35.5347C6.87482 35.6128 6.89447 35.6902 6.9323 35.7585C6.97026 35.8269 7.02517 35.8856 7.09164 35.9268C7.15792 35.9679 7.23399 35.9912 7.31186 35.9949C7.38974 35.9984 7.46765 35.9813 7.53744 35.9465L14.2459 32.5914C14.9457 32.2417 15.7177 32.0597 16.5 32.0597C17.2823 32.0597 18.0543 32.2417 18.7541 32.5914L26.4759 36.4532L26.7194 36.557C26.969 36.6475 27.2331 36.6949 27.5 36.6949C27.8554 36.6949 28.2062 36.612 28.5241 36.4532L36.8708 32.2781L36.9764 32.2065C37.0073 32.1782 37.0347 32.1457 37.057 32.1098C37.1017 32.0374 37.125 31.9532 37.125 31.8681V8.46623ZM39.875 31.8699C39.8746 32.4654 39.7085 33.0499 39.3952 33.5564C39.0818 34.0627 38.6334 34.4719 38.1008 34.738L29.7541 38.9114C29.0543 39.2611 28.2823 39.4449 27.5 39.4449C26.7177 39.4449 25.9457 39.2628 25.2459 38.9132L17.5241 35.0513C17.2061 34.8925 16.8555 34.8097 16.5 34.8097C16.2333 34.8097 15.9689 34.8554 15.7194 34.9457L15.4759 35.0513L8.76742 38.4065C8.2777 38.6512 7.73342 38.7663 7.18653 38.7413C6.63972 38.7162 6.10851 38.5516 5.64324 38.2633C5.17804 37.9749 4.79352 37.5727 4.52784 37.0942C4.26229 36.6157 4.12381 36.0766 4.12501 35.5294V12.1329L4.13217 11.9091C4.16853 11.3916 4.33075 10.8895 4.60483 10.4464C4.91814 9.93986 5.36652 9.53099 5.89926 9.26473L14.2459 5.0896L14.5127 4.96606C15.1397 4.69714 15.8157 4.55786 16.5 4.55786C17.2823 4.55786 18.0543 4.73992 18.7541 5.0896L26.4759 8.95142L26.7194 9.05526C26.969 9.1457 27.2332 9.19311 27.5 9.19312C27.8554 9.19312 28.2062 9.11018 28.5241 8.95142L35.2326 5.59627C35.7221 5.35167 36.2668 5.23479 36.8135 5.25968C37.3596 5.28469 37.8901 5.44999 38.355 5.73771C38.8202 6.0258 39.2045 6.42856 39.4704 6.90682C39.7359 7.38439 39.8754 7.92163 39.875 8.46802V31.8699Z" fill="#FFD54F"/>
<path d="M26.125 38.0674V10.5674C26.125 9.80801 26.7406 9.19312 27.5 9.19312C28.2594 9.19312 28.875 9.80801 28.875 10.5674V38.0674C28.875 38.8268 28.2594 39.4424 27.5 39.4424C26.7406 39.4424 26.125 38.8268 26.125 38.0674Z" fill="#FFD54F"/>
<path d="M15.125 33.4327V5.93274C15.125 5.17335 15.7406 4.55786 16.5 4.55786C17.2594 4.55786 17.875 5.17335 17.875 5.93274V33.4327C17.875 34.1921 17.2594 34.8077 16.5 34.8077C15.7406 34.8077 15.125 34.1921 15.125 33.4327Z" fill="#FFD54F"/>
</svg>
