<svg width="73" height="78" viewBox="0 0 73 78" fill="none" xmlns="http://www.w3.org/2000/svg">
<path d="M23.0095 49.3141V76.5719H8.1394C6.15949 76.5719 4.55444 74.9669 4.55444 72.987V49.3141H23.0095Z" fill="#74DCFF" stroke="#0CB1E9" stroke-width="1.79247"/>
<path d="M48.5708 48.434V76.5727H64.3208C66.3007 76.5727 67.9057 74.9676 67.9058 72.9877V48.434H48.5708Z" fill="#74DCFF" stroke="#0CB1E9" stroke-width="1.79247"/>
<rect x="36.2468" y="2.6571" width="13.1732" height="8.77153" rx="1.79247" fill="#EF5350" stroke="#E12B1F" stroke-width="1.79247"/>
<rect x="34.7211" y="0.448118" width="2.6251" height="19.3514" rx="1.31255" fill="#4483D8" stroke="#115AC1" stroke-width="0.896237"/>
<mask id="path-5-inside-1_460_1625" fill="white">
<path d="M65.852 40.495C66.6095 40.495 67.3317 40.8145 67.8413 41.3749L71.7563 45.6816C73.3262 47.4087 72.101 50.1784 69.7671 50.1786H2.69383C0.359644 50.1786 -0.865572 47.4087 0.704569 45.6816L4.61863 41.3749C5.1282 40.8144 5.85134 40.495 6.60887 40.495H65.852Z"/>
</mask>
<path d="M65.852 40.495C66.6095 40.495 67.3317 40.8145 67.8413 41.3749L71.7563 45.6816C73.3262 47.4087 72.101 50.1784 69.7671 50.1786H2.69383C0.359644 50.1786 -0.865572 47.4087 0.704569 45.6816L4.61863 41.3749C5.1282 40.8144 5.85134 40.495 6.60887 40.495H65.852Z" fill="#4792EF"/>
<path d="M65.852 40.495L65.852 38.7026H65.852V40.495ZM67.8413 41.3749L69.1676 40.1692L69.1675 40.169L67.8413 41.3749ZM71.7563 45.6816L73.0827 44.4759L73.0827 44.4758L71.7563 45.6816ZM69.7671 50.1786V51.9711H69.7672L69.7671 50.1786ZM0.704569 45.6816L2.03089 46.8873L2.03106 46.8871L0.704569 45.6816ZM4.61863 41.3749L3.29231 40.1692L3.29215 40.1694L4.61863 41.3749ZM65.852 40.495L65.852 42.2875C66.1045 42.2875 66.3452 42.394 66.5151 42.5808L67.8413 41.3749L69.1675 40.169C68.3182 39.2351 67.1144 38.7026 65.852 38.7026L65.852 40.495ZM67.8413 41.3749L66.515 42.5807L70.43 46.8873L71.7563 45.6816L73.0827 44.4758L69.1676 40.1692L67.8413 41.3749ZM71.7563 45.6816L70.4299 46.8872C70.9532 47.4629 70.5448 48.3861 69.7669 48.3862L69.7671 50.1786L69.7672 51.9711C73.6572 51.9707 75.6992 47.3544 73.0827 44.4759L71.7563 45.6816ZM69.7671 50.1786V48.3862H2.69383V50.1786V51.9711H69.7671V50.1786ZM2.69383 50.1786V48.3862C1.91592 48.3862 1.50741 47.4631 2.03089 46.8873L0.704569 45.6816L-0.621753 44.4758C-3.23855 47.3543 -1.19663 51.9711 2.69383 51.9711V50.1786ZM0.704569 45.6816L2.03106 46.8871L5.94512 42.5805L4.61863 41.3749L3.29215 40.1694L-0.621917 44.476L0.704569 45.6816ZM4.61863 41.3749L5.94495 42.5807C6.11423 42.3945 6.35549 42.2875 6.60887 42.2875V40.495V38.7026C5.34718 38.7026 4.14217 39.2343 3.29231 40.1692L4.61863 41.3749ZM6.60887 40.495V42.2875H65.852V40.495V38.7026H6.60887V40.495Z" fill="#115AC1" mask="url(#path-5-inside-1_460_1625)"/>
<path d="M50.2998 27.7777V76.5736H22.1611V27.7777L36.2295 18.6741L50.2998 27.7777Z" fill="#74DCFF" stroke="#0CB1E9" stroke-width="1.79247"/>
<mask id="path-8-inside-2_460_1625" fill="white">
<path d="M34.0325 15.8733C35.3123 14.8395 37.0957 14.849 38.3548 15.7923C38.4158 15.8355 38.4764 15.8803 38.5354 15.928L53.2591 27.8225C54.7718 29.0447 55.0075 31.2619 53.7854 32.7747C52.5633 34.2875 50.3461 34.5231 48.8333 33.3011L36.2493 23.135L23.1477 33.72C21.6349 34.9421 19.4177 34.7064 18.1956 33.1936C16.9735 31.6808 17.2091 29.4636 18.722 28.2415L34.0325 15.8733Z"/>
</mask>
<path d="M34.0325 15.8733C35.3123 14.8395 37.0957 14.849 38.3548 15.7923C38.4158 15.8355 38.4764 15.8803 38.5354 15.928L53.2591 27.8225C54.7718 29.0447 55.0075 31.2619 53.7854 32.7747C52.5633 34.2875 50.3461 34.5231 48.8333 33.3011L36.2493 23.135L23.1477 33.72C21.6349 34.9421 19.4177 34.7064 18.1956 33.1936C16.9735 31.6808 17.2091 29.4636 18.722 28.2415L34.0325 15.8733Z" fill="#4792EF"/>
<path d="M34.0325 15.8733L35.1589 17.2677L35.1589 17.2677L34.0325 15.8733ZM38.3548 15.7923L37.28 17.2268L37.2992 17.2412L37.3187 17.255L38.3548 15.7923ZM38.5354 15.928L39.6618 14.5337L39.6618 14.5337L38.5354 15.928ZM53.2591 27.8225L54.3855 26.4282L54.3855 26.4282L53.2591 27.8225ZM53.7854 32.7747L55.1798 33.9011L55.1798 33.9011L53.7854 32.7747ZM48.8333 33.3011L47.7069 34.6954L47.7069 34.6954L48.8333 33.3011ZM36.2493 23.135L37.3757 21.7407L36.2493 20.8307L35.1228 21.7408L36.2493 23.135ZM23.1477 33.72L24.2741 35.1143L24.2742 35.1143L23.1477 33.72ZM18.1956 33.1936L16.8013 34.32L16.8013 34.3201L18.1956 33.1936ZM18.722 28.2415L17.5956 26.8471L17.5955 26.8472L18.722 28.2415ZM34.0325 15.8733L35.1589 17.2677C35.7853 16.7617 36.6615 16.7634 37.28 17.2268L38.3548 15.7923L39.4295 14.3577C37.5299 12.9345 34.8393 12.9172 32.9061 14.479L34.0325 15.8733ZM38.3548 15.7923L37.3187 17.255C37.3604 17.2845 37.3886 17.3058 37.4091 17.3224L38.5354 15.928L39.6618 14.5337C39.5643 14.4548 39.4713 14.3866 39.3908 14.3295L38.3548 15.7923ZM38.5354 15.928L37.409 17.3223L52.1327 29.2169L53.2591 27.8225L54.3855 26.4282L39.6618 14.5337L38.5354 15.928ZM53.2591 27.8225L52.1326 29.2169C52.8754 29.8169 52.9911 30.9056 52.3911 31.6483L53.7854 32.7747L55.1798 33.9011C57.024 31.6182 56.6683 28.2724 54.3855 26.4282L53.2591 27.8225ZM53.7854 32.7747L52.3911 31.6483C51.7911 32.391 50.7024 32.5067 49.9597 31.9067L48.8333 33.3011L47.7069 34.6954C49.9898 36.5395 53.3355 36.1839 55.1798 33.9011L53.7854 32.7747ZM48.8333 33.3011L49.9597 31.9067L37.3757 21.7407L36.2493 23.135L35.1229 24.5294L47.7069 34.6954L48.8333 33.3011ZM36.2493 23.135L35.1228 21.7408L22.0213 32.3257L23.1477 33.72L24.2742 35.1143L37.3758 24.5293L36.2493 23.135ZM23.1477 33.72L22.0213 32.3257C21.2786 32.9256 20.19 32.81 19.5899 32.0672L18.1956 33.1936L16.8013 34.3201C18.6455 36.6028 21.9913 36.9586 24.2741 35.1143L23.1477 33.72ZM18.1956 33.1936L19.5899 32.0672C18.9899 31.3245 19.1056 30.2359 19.8484 29.6358L18.722 28.2415L17.5955 26.8472C15.3127 28.6914 14.957 32.0372 16.8013 34.32L18.1956 33.1936ZM18.722 28.2415L19.8483 29.6358L35.1589 17.2677L34.0325 15.8733L32.9061 14.479L17.5956 26.8471L18.722 28.2415Z" fill="#115AC1" mask="url(#path-8-inside-2_460_1625)"/>
<circle cx="36.4733" cy="41.8154" r="7.46693" fill="white" stroke="#0CB1E9" stroke-width="1.79247"/>
<path d="M36.4729 58.1172C40.1104 58.1172 43.0596 61.0656 43.0598 64.7031V76.5723H29.887V64.7031C29.8872 61.0658 32.8355 58.1174 36.4729 58.1172Z" fill="#3B82F6" stroke="#115AC1" stroke-width="1.79247"/>
<path d="M36.4736 38.2942V42.2557H39.5548" stroke="#0CB1E9" stroke-width="1.79247" stroke-linecap="round" stroke-linejoin="round"/>
<rect x="9.19128" y="55.0281" width="8.78743" height="6.14643" rx="1.34435" fill="#3B82F6" stroke="#115AC1" stroke-width="0.896237"/>
<rect x="54.9679" y="55.0281" width="8.78743" height="6.14643" rx="1.34435" fill="#3B82F6" stroke="#115AC1" stroke-width="0.896237"/>
<path d="M30.054 22.0085C27.3694 24.2736 22.2088 28.4682 20.3164 29.9127" stroke="url(#paint0_linear_460_1625)" stroke-width="0.896236" stroke-linecap="round"/>
<path d="M19.5231 43.1654C16.012 43.2652 9.362 43.3322 6.98182 43.2835" stroke="url(#paint1_linear_460_1625)" stroke-width="0.896237" stroke-linecap="round"/>
<path d="M64.4199 43.1654C60.9087 43.2652 54.2587 43.3322 51.8785 43.2835" stroke="url(#paint2_linear_460_1625)" stroke-width="0.896237" stroke-linecap="round"/>
<defs>
<linearGradient id="paint0_linear_460_1625" x1="24.6806" y1="22.8919" x2="25.6896" y2="29.0294" gradientUnits="userSpaceOnUse">
<stop stop-color="white" stop-opacity="0"/>
<stop offset="0.740385" stop-color="white"/>
<stop offset="1" stop-color="white" stop-opacity="0"/>
</linearGradient>
<linearGradient id="paint1_linear_460_1625" x1="14.7692" y1="40.5095" x2="11.7356" y2="45.9394" gradientUnits="userSpaceOnUse">
<stop stop-color="white" stop-opacity="0"/>
<stop offset="0.740385" stop-color="white"/>
<stop offset="1" stop-color="white" stop-opacity="0"/>
</linearGradient>
<linearGradient id="paint2_linear_460_1625" x1="59.6659" y1="40.5095" x2="56.6323" y2="45.9394" gradientUnits="userSpaceOnUse">
<stop stop-color="white" stop-opacity="0"/>
<stop offset="0.740385" stop-color="white"/>
<stop offset="1" stop-color="white" stop-opacity="0"/>
</linearGradient>
</defs>
</svg>
